<?xml version="1.0" encoding="UTF-8"?>
<!DOCTYPE svg PUBLIC "-//W3C//DTD SVG 1.1//EN" "http://www.w3.org/Graphics/SVG/1.1/DTD/svg11.dtd">
<!-- Creator: CorelDRAW SE -->
<svg xmlns="http://www.w3.org/2000/svg" xml:space="preserve" width="370.434mm" height="400.598mm" version="1.1" style="shape-rendering:geometricPrecision; text-rendering:geometricPrecision; image-rendering:optimizeQuality; fill-rule:evenodd; clip-rule:evenodd"
viewBox="0 0 24920 26949"
 xmlns:xlink="http://www.w3.org/1999/xlink">
 <defs>
  <style type="text/css">
   <![CDATA[
    .fil0 {fill:#121212}
    .fil1 {fill:#E02926}
   ]]>
  </style>
 </defs>
 <g id="Vrstva_x0020_1">
  <metadata id="CorelCorpID_0Corel-Layer"/>
  <path class="fil0" d="M5426 26097c-32,78 -12,-30 -49,65 145,30 102,2 201,91 61,-32 35,-53 94,-11 -25,5 -28,0 -65,23 113,27 118,34 252,39 182,7 369,33 553,17 149,-13 118,-22 266,-6 21,-51 -21,6 8,-41 38,-62 11,-2 53,-50 31,-35 62,-95 79,-135 28,-67 111,-217 116,-270l-194 15c1,-85 13,-112 -33,-182 -39,-57 -59,-108 -111,-83 -6,-80 26,-72 -32,-130 -53,-53 -56,-38 -99,-115 -92,-170 -121,-71 -108,-284 -67,-41 1,19 -65,-23 -8,-96 33,-128 24,-254l-22 -157c-15,-79 6,-34 8,-102 10,-245 -158,-278 -231,-445 -94,-214 -170,-414 -137,-654 97,-6 317,107 387,176 86,86 324,367 388,412 173,121 98,31 255,31 131,0 274,188 401,148l20 84c143,14 220,64 280,42 1,9 -11,5 16,44 95,13 97,-19 228,6 122,23 103,-16 229,-16l1 43c1,53 22,-19 -13,15 -1,1 -5,5 -6,5 -59,64 -1,-49 -10,16 175,129 173,-31 179,-40 99,-15 752,22 988,3 186,-15 561,21 707,-113l56 -11c108,-31 78,-35 154,-95 49,-39 103,-51 155,-95 185,-155 350,-325 450,-546 58,-126 145,-239 93,-389 -91,-10 -5,9 -73,37 14,-51 43,-65 40,-156 -3,-100 -46,-45 6,-158l75 -10c1,-160 42,-104 0,-281 -157,33 -105,52 -194,91 23,-68 60,-50 80,-125 19,-77 5,-87 38,-175 39,-103 84,-69 142,-142 25,-32 22,-38 49,-67l39 107c123,-143 32,-346 52,-539 9,-88 36,-76 61,-154 110,-333 -158,-467 -179,-629 -16,-115 -16,-260 -41,-373 -34,-153 -82,-143 -176,-249 -88,-99 -113,-127 -214,-214 -150,-129 -150,-77 -284,-144 -107,-53 -99,-120 -252,-158 -109,-26 -176,-92 -282,-144 -96,-47 -195,-90 -294,-132 -127,-55 -200,13 -358,-70 -180,-94 -368,-217 -559,-277 -396,-124 -309,-43 -673,29l36 -242c184,-140 219,-275 255,-505 15,-95 45,-232 52,-320 11,-130 -16,-247 -15,-371 3,-312 -50,-213 -155,-409 -29,-55 -20,-78 -64,-132 -84,-102 -112,-130 -100,-267 9,-112 -37,-67 -36,-134 0,-51 40,5 -13,-131 -61,-2 33,14 -39,27 -44,-109 37,-102 -33,-224 -48,92 14,22 -13,92 -60,-62 -103,-372 -116,-473 -40,-45 -93,-53 -116,-81 -33,-42 -32,-94 -69,-145 -88,-121 -653,-382 -815,-468 -191,-102 -666,-181 -901,-165 -74,6 -118,22 -197,17 -132,-8 -49,11 -160,23 -127,13 -91,-10 -150,-53 -115,152 -91,88 -242,88 -116,-1 -183,67 -274,94 -57,17 -77,8 -140,39 -92,45 -184,53 -254,120 -75,74 -36,14 -80,120 51,26 5,4 86,0 -51,27 -37,1 -67,62 106,-9 114,-51 123,-58l127 -47c13,47 -10,21 -9,52l94 -20c-46,-33 -46,-14 -35,-46 67,23 22,10 71,69 82,-2 81,18 139,-30 -1,63 -5,43 -95,74 -43,15 -101,41 -143,53 34,72 65,-43 39,75 -83,14 -20,-7 -85,-18 -53,-9 -40,6 -107,5l72 -60c-66,9 -111,28 -171,14 55,56 63,31 108,117 -22,16 -81,44 -123,33 -105,-28 36,-67 -132,-46 50,31 91,16 47,81 -99,-49 -35,5 -60,-64 -320,172 -158,110 -254,194 -32,29 -68,46 -110,56 66,52 19,-10 67,61 -60,44 -11,-11 -97,-50 -47,64 -62,135 -126,184 -65,49 -115,52 -193,121 44,-70 43,-43 17,-91 -88,60 -3,142 -92,217l-11 -1c-34,7 38,-47 -12,4l-58 76c-84,109 -112,232 -136,362 -20,107 -40,211 -57,317 -20,125 10,244 11,371 -103,19 -29,-9 -74,-5l-24 66c-1,4 -4,8 -6,12 -1,4 -4,9 -6,13 -7,20 -9,0 -12,37 -6,73 34,67 50,140 20,91 75,174 108,266l65 126c23,10 11,3 35,7l34 6c2,0 8,1 11,2 -13,153 -3,88 22,242 17,100 20,162 44,260 61,257 -1,154 126,502l-430 -71c-30,-47 -39,-117 -114,-118l8 107 -81 -5c-49,-10 -117,20 -188,14 -149,-11 -308,-51 -460,-32 -75,10 -46,29 -134,20 -276,-30 -517,133 -733,285 -24,17 -70,51 -97,64 -26,13 -48,17 -63,25l-164 104c-23,11 -35,15 -56,34 -35,30 -27,30 -36,46 67,-37 77,-67 152,-63 -137,178 -320,274 -509,545 65,-14 17,27 75,-27 45,-41 10,-42 80,-58 -35,64 -111,136 -142,190 -29,50 -24,90 -48,131 -13,22 -65,75 -83,95 -49,54 -100,151 -141,213 -57,86 -68,151 -44,245 -196,239 -84,224 -40,385 -162,-32 -88,-58 -193,-85 -67,237 94,263 94,392 1,411 102,487 131,685 36,240 87,428 174,662 223,599 525,841 1070,1138 220,120 563,266 811,292 519,56 661,-82 1113,-224 79,-25 118,-67 171,-82 71,-20 117,2 189,-38 39,-22 44,-42 83,-59 45,-20 66,-12 112,-32 39,-18 254,-175 304,-211 109,-81 190,-127 264,-250 46,15 267,41 304,32 54,-14 132,-120 192,-156 -5,189 -86,321 -106,491 -17,151 3,427 -30,559 -18,75 -59,135 -75,208 -66,301 -206,291 -225,373 -14,58 49,9 -27,93 -29,33 -58,38 -89,71 -50,95 48,141 -131,241 -53,30 -85,121 -141,165l31 78c-84,-14 -26,-33 -91,8 150,216 165,83 304,91 71,4 51,24 140,9 -19,-89 -121,-57 -174,-134 70,-111 130,-36 179,36 14,20 43,83 52,107l209 3c-71,13 -145,1 -208,29 -70,31 -16,29 -68,38 -14,2 2,-7 -38,0l-57 21c172,40 105,133 595,37 86,-17 154,-54 196,13l86 -50c2,0 7,-1 10,-2l56 -14zm178 -67c-172,1 -237,70 -296,-17 -5,-10 -3,-63 21,-95 36,-49 77,-43 132,-37 563,69 564,-41 734,-269 35,31 69,63 112,85 60,31 104,24 105,107 1,72 -19,96 -72,128 -113,70 -71,20 -136,-6 -54,-22 -571,-11 -573,-10 -103,29 -37,91 -27,114zm-830 -152c-185,13 -142,-153 -39,-150 76,1 94,44 94,44 -7,10 -41,48 -41,49 -33,59 19,-13 -14,57zm53 -433l-4 -67c66,-37 46,-8 84,-17 38,-9 11,-20 95,-15l26 83 -201 16zm536 -831c53,94 60,95 67,213 6,112 2,37 32,111 35,87 -6,8 -6,96l133 65c24,144 71,137 26,179 -50,21 -101,-9 -182,0 -33,3 -128,36 -166,49 2,-122 89,-181 117,-319 20,-96 -21,-279 -21,-394zm2996 -1083c81,-59 147,-19 242,-24 -20,-67 -32,-23 -23,-63l80 44c73,33 94,24 179,29l6 -26c15,-46 9,-42 43,-44l118 -3c26,76 -4,50 29,99 112,-13 87,-89 104,-119 68,90 -18,-2 8,113 113,23 12,-48 200,29 -37,96 -26,-48 -66,66 281,28 193,64 276,98 -25,20 -44,27 -62,45 -38,39 -4,13 -43,65l-99 -53c-138,86 -29,55 -199,37 -48,53 -32,29 -68,92 -220,-7 -110,-72 -290,-23 -194,53 -116,-77 -255,35l-53 -35c11,-152 11,-103 109,-177 59,-44 160,-105 169,-173 -61,17 -101,68 -161,-1 -24,60 16,-3 4,49 -58,-17 -220,48 -248,-60zm-6728 81c175,32 419,128 579,213 131,70 152,75 300,91 90,10 79,41 160,40 75,-1 81,-35 179,-38 55,66 115,120 178,3 41,-75 -29,-50 201,-143 104,-42 375,-192 467,-151l45 -48c-51,-17 0,27 -73,-14 86,-44 20,-54 141,-80 27,-5 62,-11 90,-7 89,10 -8,25 64,12 1,0 203,-78 324,-14 -57,95 -454,312 -570,349 -622,198 -925,359 -1460,116 -137,-62 -554,-224 -625,-329zm6105 -364c-11,31 -43,115 -52,124 -83,2 -70,-18 -117,-57 -71,-59 -56,6 -120,-74 63,-80 332,-92 439,-84 -21,65 -82,77 -150,91zm2359 -619c-53,51 -442,159 -528,146 -42,-63 39,-14 -63,-65 73,-271 154,-107 212,-105 52,1 166,-23 205,-22 1,0 171,45 174,46zm-1067 -208c32,-43 215,-146 282,-201 318,-257 179,-145 380,-367 127,-140 314,62 532,-220 72,-2 179,27 231,58 -61,160 -260,275 -411,352 -245,123 -144,40 -272,103 -87,41 -213,71 -274,115 73,41 103,-58 177,-18l-140 105 -15 151c-62,33 -167,98 -225,103l105 -240c2,-3 4,-8 6,-12 23,-44 -5,-18 46,-63 -71,-46 -115,45 -200,71 -103,30 -42,-19 -116,9 -49,19 -36,33 -106,54zm-8117 -280c74,-57 45,-19 117,-32 51,-8 148,-116 242,75 54,108 73,51 169,61 41,168 -2,77 199,98 49,5 77,4 126,2 37,61 8,28 27,101 83,39 148,94 201,118 68,32 158,46 193,120 -259,22 -473,-126 -698,-203 -89,-30 -238,-96 -319,-142 -51,-29 -88,-61 -140,-91 -133,-76 -92,-58 -117,-107zm2849 -447c-98,63 -174,96 -401,61 -157,-24 -353,52 -429,-101 103,-198 151,-282 345,-213 79,29 87,99 162,56 32,-19 -12,-28 85,-61 -114,-113 143,-103 209,-65 -70,41 -37,9 -111,27l135 28c-12,36 -11,24 -16,41 -19,53 16,-12 -16,48l-193 -21 141 62c-69,15 -257,-5 -331,-15 -83,-12 -83,-5 -152,12 -97,22 -57,-33 -119,-5l525 148c132,35 49,-30 166,-2zm-1730 -302c-157,-9 -30,-67 -143,-36 0,0 -105,53 -174,-15 74,-69 268,-132 376,-133 9,117 26,24 -24,110l-35 74zm3370 -180c196,-74 421,110 232,-84 32,-53 142,-132 211,-165 180,-89 168,-56 262,-74 49,-10 14,4 42,-14 3,-19 65,7 -60,-36 1,-73 40,31 3,-72 -131,0 22,41 -120,29 108,-146 156,-136 245,-138 91,-3 281,-21 352,18l-174 15c11,68 46,70 104,106 -93,20 -66,23 -160,2 67,63 60,44 145,58 165,25 -24,40 137,56 -64,44 21,6 -90,93 -3,3 -7,6 -10,9l-20 17c85,50 17,-47 103,53 -59,34 -74,4 -130,61 -23,23 -1,35 -118,76l-521 65c-307,-26 -9,-58 -375,-51 -30,1 -39,7 -58,-24zm-2037 -79c-95,11 -52,4 -96,-21 -55,-32 -43,-19 -93,-42 7,56 67,77 -24,100 -107,26 -70,-32 -248,41l-229 78c75,79 24,12 32,62l167 50c-277,6 -442,43 -722,-16l43 -44c-62,-45 -61,-63 -77,-115l137 -26c-63,-12 -44,15 -101,-23 245,-97 48,-42 164,-91 68,-29 161,5 206,-26 -31,-12 -46,-7 -86,-43 25,-3 117,-16 136,-17 133,-7 3,18 112,21 219,7 144,67 208,-20l19 69c106,-28 151,3 224,33 43,-75 -20,-34 57,-74l82 49 82 -109c37,54 -5,40 -16,75 -31,101 -11,14 23,89zm3832 558c5,-182 154,-125 304,-122 161,4 195,70 339,-37 165,-124 17,-121 299,-152 407,-44 491,-472 840,-493 198,-11 157,-68 260,-182 68,-74 273,-95 362,-79l-280 142c-92,48 -173,116 -263,166 -185,101 -365,205 -539,333 -161,118 -686,380 -895,408 -58,8 -375,20 -427,16zm-5545 -1268l0 -43c5,-13 14,-36 52,-49 -107,-45 -6,-43 -112,-3 55,37 27,28 30,64 -164,87 -17,32 -147,37 -13,1 -68,48 -107,-71 -33,-100 68,-240 127,-273 167,-92 145,-40 320,1 78,18 41,27 102,45 112,34 234,-160 277,-255l93 -193c33,-73 45,-146 -26,-198 2,-1 8,-6 9,-3 2,5 5,0 20,-6 97,-38 20,-39 110,-42 57,-1 172,11 241,12 -65,95 -100,14 -125,107 47,129 50,-23 141,36 -42,73 -121,108 -181,156l99 -21c-1,1 -2,8 -2,10 14,87 29,-13 20,98l-137 73c-3,32 18,56 53,70l-82 33c88,88 -87,129 -103,168l-189 22c96,-99 109,25 141,-106 -51,17 -190,84 -223,114l156 4c-22,42 -26,10 -59,47 -1,1 -3,5 -4,6 -70,75 -167,-6 -294,118 -98,-48 -47,-52 -139,-39 87,22 54,0 43,60l-104 21zm7184 -617c-29,66 -2,6 -83,57 -144,91 44,63 -67,143 -228,163 -290,63 -290,62 -28,-9 -59,-5 -48,47 14,62 44,32 75,42 -106,74 -392,174 -536,161 202,-188 -142,-79 -230,-37 -347,169 -103,-21 -446,57l355 -221c152,-58 75,42 181,-102 106,-144 149,-19 347,-98 66,-27 57,-37 94,-51 112,-44 135,49 211,71 50,15 361,-109 437,-131zm-5912 484c50,32 69,32 107,99 69,122 51,47 83,54 -4,182 -71,56 108,266 -48,-6 -268,-114 -333,-142l-373 -129c44,-23 127,-82 177,-115 95,-62 122,-31 175,-125l48 61c41,-57 16,-30 41,-77 167,2 181,66 296,95l-132 -6c-127,2 -20,-4 -132,-30l-65 49zm1804 -315c90,70 85,-29 132,109 -85,58 -103,-22 -211,20 41,37 83,56 139,78 107,42 59,28 161,8 -25,-79 -39,18 -27,-101 55,52 -8,59 150,50 105,-7 62,42 163,20 61,-14 43,-41 55,-72 193,21 35,-8 126,-70 98,65 10,54 90,89 11,-26 11,-43 51,-73l126 66 -229 81c4,104 17,5 21,74 -139,39 -77,-30 -290,52 15,9 61,30 70,38l13 13c2,2 4,7 5,9l18 68c-123,-24 -312,12 -375,-10 -11,-51 -9,60 17,-22 17,-54 10,32 1,-19l-18 -74c0,0 16,-43 17,-45l160 4c-16,-15 0,-10 -38,-18 -26,-5 -38,-4 -64,-6 -54,-5 -74,-13 -129,-16 -15,40 9,16 -20,90 -49,-20 -13,-4 -88,-2 -35,76 22,6 -20,68 -37,7 -42,8 -81,6 -141,-8 -296,63 -448,35 -115,-21 2,-34 -162,-19 -15,-31 -3,5 -1,-24 5,-75 20,29 4,-26 -266,18 -92,62 -244,44 -42,-55 45,-53 -134,-134 2,-58 -34,65 11,-14 21,-37 18,15 11,-26 -237,-1 -47,-90 -389,-92 36,-75 -4,10 12,-47 86,-38 173,1 268,12l51 12c131,62 305,55 503,68l47 -75c107,-4 283,45 370,-42 72,-72 -30,-16 77,-75 -58,-39 -66,-50 -60,-123 82,-29 193,-13 282,-10 -7,9 -30,42 -34,45 -77,72 -45,-46 -89,76zm135 -1954c50,167 317,86 481,178 328,185 286,122 481,145 53,74 -10,-7 17,65l56 12c95,-9 -108,30 51,-36 101,-41 180,38 191,129 -137,37 -407,73 -554,46 -99,-19 -62,-57 -123,-122 -121,-19 -143,4 -266,-55 -73,-34 -159,-104 -227,-23 -36,62 149,121 172,219l-10 82c-15,41 -4,16 -19,40 -111,6 -449,-23 -538,-71 -164,-87 -143,9 -336,-128 -54,-38 -67,-21 -82,-65 114,-80 63,54 187,-98 48,-58 4,-16 63,-63 102,-80 317,-403 350,-412 98,2 76,22 149,44 75,22 102,-16 94,109 -52,-27 -108,-12 -137,4zm1840 -372c-57,27 -602,6 -693,-8 -216,-33 -427,-58 -638,-111 -54,-13 -96,-32 -146,-49 -59,-21 -105,-19 -163,-33 -144,-33 22,-29 -236,-68 -111,-17 -438,-3 -608,-104 8,-131 26,0 31,-101l-113 -13c-9,-116 22,-25 -24,-123 115,-8 305,19 400,-8 90,-27 264,-15 368,-5 2,0 644,290 880,346 104,25 232,47 334,76 118,35 188,71 298,111 226,81 266,-27 310,90zm-965 -1247c-72,-14 -73,-32 -118,-45 -76,-24 -15,18 -96,-14 142,-104 332,-75 504,-40 197,40 234,54 300,147 24,33 38,37 66,73 -197,5 -215,-48 -374,-76 -180,-32 33,61 -290,-95l8 50zm107 -550c38,-61 3,-9 17,-56l110 66c-51,-22 -124,6 -165,40 279,12 324,72 425,217 60,87 40,47 47,162 -95,-8 -200,-29 -295,-38 -126,-12 -165,5 -293,-29 -151,-40 -317,119 -453,-27 90,-66 204,-68 288,-140 53,-44 49,-68 126,-86 58,-14 108,-8 153,-57 -125,-14 -112,20 -210,-56 103,-65 123,-3 250,4z"/>
  <g id="_505263408">
   <path class="fil0" d="M19544 11034l86 -32c46,93 28,39 34,120l79 -1c-7,-48 13,-12 -42,-43 109,-9 42,-2 110,65l-37 66c-37,64 -54,58 -142,66 44,33 26,7 36,68l-55 25c59,13 62,8 91,58 64,-19 -1,-8 72,-30 63,78 65,46 170,57 -75,35 -246,-18 -318,32 67,27 639,57 724,43 182,-29 124,-41 346,-41 123,0 266,0 265,-145 -67,-5 -89,12 -139,-18 43,-96 32,19 148,-30 19,-57 -2,-76 -5,-149 -2,-77 13,-83 15,-160 -160,4 -261,-81 -346,-212 -98,-150 -95,-91 -129,-161 -28,-58 -61,-170 -124,-96 12,-90 -105,-142 -164,-259 -35,-69 -60,-78 -93,-141 -61,-118 -32,-59 -121,-114 48,-117 50,-123 -12,-238 -45,-81 -68,-126 -166,-164 -78,31 7,32 -90,32 -74,0 -30,-36 -109,-1 -76,33 -68,108 -158,124 -27,-235 -52,-335 189,-226 99,45 274,-16 301,-77 49,-108 -92,-406 -73,-490 21,-94 66,-113 62,-239 -4,-104 -42,-144 -33,-267 98,38 127,328 767,618 421,191 1237,446 1706,235 102,-45 160,-56 249,-91 131,-51 52,-99 270,-90 282,11 214,90 545,-74 149,-74 295,-182 424,-288 352,-288 959,-1342 1001,-1792 11,-122 -5,-206 -13,-322 -7,-115 36,-193 51,-303 18,-130 -27,-490 -72,-617 -29,-84 -69,-156 -96,-242 -53,-175 -98,-351 -213,-498 -89,-115 -130,-60 -212,-146 -27,-119 -19,-394 -133,-452 -203,-103 -103,86 -356,-250 -172,-228 -402,-413 -663,-526 -25,-63 -40,-185 -79,-229 -84,-96 -149,39 -165,-116 107,3 85,33 167,-13l50 86c42,-56 24,-83 3,-138 -130,-36 -110,1 -222,-1 -75,-1 -129,-46 -192,-83 -97,-56 -104,-15 -132,-134 -22,-97 -72,-89 -157,-111 -36,-9 -27,-32 -40,-65l-11 -30c-117,55 1,46 -163,61l-11 102c-63,-9 -83,-42 -85,-102 -2,-85 6,-103 59,-144 -52,-7 -70,-29 -108,-69l-26 -27c-33,-32 -42,-23 -55,-77 52,3 39,3 88,25 19,9 94,50 95,50 93,31 38,-43 183,45 -58,33 6,-2 -52,9 -165,29 -100,-18 -125,44 36,0 174,-19 205,-30 80,72 104,144 187,193l32 -87c-30,-34 -100,-97 -135,-115 -179,-87 -142,-116 -373,-156 -139,-25 -78,0 -180,-84 -2,5 -10,29 -12,33 -1,3 -4,9 -6,13 -2,4 -6,10 -8,13 -1,4 -5,10 -8,14 -60,-8 -61,-7 -112,-26 -128,-46 -173,-33 -253,-177 69,-114 214,-103 233,-230 -212,-83 -212,24 -388,52 -75,-79 -87,-234 -170,-291 -113,-77 -102,-217 -124,-349 -37,-222 -404,-266 -585,-330 -41,-69 1,-50 -61,-103 -32,-27 -65,-36 -102,-61 -44,-49 54,-20 -145,-245 -123,-138 -120,-72 -277,-61 -38,-52 -80,-48 -92,-111 0,-141 26,-320 -27,-449 -192,-460 -613,598 -1256,907 -107,51 -239,71 -284,194 -65,180 10,271 6,435l-256 314c-91,15 -163,24 -242,46 -106,30 -78,105 -101,200 -127,40 -947,20 -900,473 12,119 131,143 148,322 49,38 78,28 80,99l-297 27c10,-124 18,-194 -144,-195 -115,-1 -166,80 -232,156 -145,167 -229,229 -406,360 -75,55 -138,105 -210,164 -213,172 -304,-19 -396,369 -11,47 -20,123 -36,162 -52,118 -118,-29 -139,283 -4,59 27,179 1,219 -83,91 -370,136 -485,316 -55,86 -79,202 -118,294 -44,102 -17,44 -11,150 5,102 -40,107 3,186l41 -93c13,78 -2,181 30,243 58,-69 9,-142 42,-222 31,-72 -10,-23 44,-40l-31 461c-83,171 13,281 38,447 -289,-49 -333,286 -280,523 92,419 388,795 680,1101 104,108 -95,331 245,610 252,206 492,312 540,351 616,506 842,390 1313,462 168,25 179,54 315,-71 50,-46 66,-94 129,-106 99,-18 53,40 93,-26 75,-20 56,1 102,-52 41,-46 21,1 78,-36 84,-54 3,-46 237,-106l44 49c139,-40 151,-98 346,-118 -93,204 -208,157 -186,275 353,52 241,-175 432,-245 106,-38 134,-9 254,-85 106,-68 110,-143 176,-187 85,82 43,169 63,273 19,97 112,64 -97,218 -91,68 -24,62 -134,126 7,59 61,87 63,163 1,31 -44,136 -60,183l-145 338c63,-3 22,-40 49,28 -63,39 -42,6 -99,63 16,61 54,17 5,127 -118,265 -114,81 -219,196 -12,14 -31,36 -34,55 -10,72 2,-77 17,36 -33,0 -65,0 -88,53 -37,83 6,54 61,96 -37,27 1,20 -66,23 43,25 35,-24 32,61 -2,68 -81,84 -99,127 -20,49 -37,46 -83,43l-99 28c4,57 79,235 84,341l-76 63c18,14 53,30 88,43l-20 83c-12,20 -52,-27 12,65 59,8 125,-14 204,-7 184,17 237,4 417,-12 93,-9 142,-7 228,-23l-3 -12c0,-30 41,-84 75,-98 35,97 45,78 148,64 119,-17 105,41 208,-25l-266 -1 -37 -67c208,-54 94,26 227,47 6,-78 -6,-96 -139,-86 -420,33 -269,-60 -504,-85 3,-64 20,38 26,-41 4,-56 -12,-1 -68,-43 -11,-8 -38,-40 -39,-42 66,-24 37,-19 100,-7l-19 -85c-37,43 -64,51 -133,49l101 -124c266,64 348,-113 598,-158l66 228zm387 -370c-14,7 -298,63 -364,43 -90,-26 -12,7 -24,-46l-499 2c34,-109 201,-309 288,-341 88,62 175,151 294,183l133 47c68,32 4,25 100,58 59,19 34,-24 72,54zm-4182 -2293c334,-39 288,103 343,125 53,22 48,-35 99,-61 55,24 42,57 69,113l305 -27 57 128c-129,5 -173,-109 -280,-9 -12,188 175,1 312,136 107,105 231,103 287,216 -301,19 -613,-167 -850,-329 -82,-56 -251,-86 -189,-181 -96,-22 -109,-42 -153,-111zm2041 35c-45,174 -5,127 -140,143 44,56 16,17 72,45 -124,11 -680,-30 -776,-92l119 -20c7,-30 56,-4 -33,-39l362 -49c98,-26 88,-76 195,-63 94,11 6,-29 109,-27 36,51 -27,81 92,102zm-695 45c-2,2 7,4 7,7 0,1 3,3 3,3 0,-1 22,-36 -10,-10zm1823 -122c14,-51 38,-92 48,-146 17,-81 -2,-91 62,-150 81,-74 259,-53 316,31 -33,35 -382,258 -426,265zm5504 -1406c-41,90 -450,460 -487,480 -84,47 -9,23 -77,-10l-31 85c11,-186 38,-73 79,-211 19,-64 54,-157 114,-192 102,-60 98,-5 178,-126 53,-80 158,-70 224,-26zm-7120 143c-62,-42 -41,-38 -70,-62 -57,-46 -39,-15 -93,-44l68 -52c86,69 81,66 174,79 69,9 168,50 231,35 52,-13 38,-48 178,-33 73,8 14,17 90,18 39,1 85,-12 143,-10 -93,56 -12,-6 -50,70l-142 -26c74,83 85,43 200,57 340,44 82,-166 411,55 98,65 128,28 234,45 367,59 127,-55 419,-101 -21,-50 30,-76 70,-136 187,2 89,44 198,85 67,26 39,-8 120,6 79,13 26,18 92,75 115,-98 23,-43 141,-50 59,-3 89,-39 164,-43 78,-5 106,19 195,17 72,-2 188,-43 300,107 53,71 51,80 90,140 73,111 233,73 246,195 -2,1 -557,-38 -591,-47 -115,-30 -146,-61 -277,-60 -109,1 -212,24 -321,20l-46 -220c-117,-1 -212,-10 -315,34 -134,56 -185,-23 -300,57 -113,78 -1033,234 -1156,235 -331,4 -278,29 -661,-8 -361,-36 -814,-32 -1224,-156 -288,-86 -724,-259 -855,-549l189 -7c83,-128 15,-72 165,-65 11,46 -57,13 67,54 70,23 105,13 178,40 87,33 230,92 326,85 28,51 -31,53 95,73 71,11 99,-7 173,-3 97,6 76,34 169,31 89,-4 90,2 181,9 -25,74 0,6 -84,45 202,23 28,123 269,147 220,21 230,-57 407,-51 11,37 -16,35 34,91l133 -149c16,-41 -8,-11 35,-33zm-2220 -255c-6,44 -12,27 37,37 -14,-58 -24,-29 -37,-37zm4440 289c-49,0 -3,28 0,13 0,0 50,-13 0,-13zm-128 -16c-1,48 30,2 14,0 0,0 -13,-50 -14,0zm-1511 14c-30,-6 -85,20 -15,28 50,6 35,-24 15,-28zm-592 -108c-2,3 7,4 7,7 0,2 3,3 3,3 -1,0 22,-37 -10,-10zm-2160 -1801c101,-110 212,-75 302,-181 68,21 102,9 168,53 118,78 -26,10 49,70 42,21 80,27 104,38 78,36 7,-11 43,70 72,-38 -13,-57 145,-3 48,-88 -14,-19 -3,-73 145,1 86,27 168,98 85,74 65,11 124,129 199,-66 80,57 159,-13 84,-132 -14,-55 23,-124 33,-64 30,-8 80,-111 342,34 561,232 781,362 110,65 64,-47 186,-54 191,-12 472,11 680,37 360,44 374,2 685,117l-16 46c271,33 56,98 713,76 65,-2 146,7 203,-10 106,-31 45,-129 509,-60l-49 44c35,12 83,21 125,20 89,-3 -14,-27 78,0 108,32 121,25 234,35 152,14 243,-44 331,-144 67,38 61,41 120,15 277,-122 280,20 356,36 205,-3 102,1 245,55 67,25 185,35 262,44 83,10 105,-12 110,-13 28,-8 -10,7 77,18 61,8 95,-9 143,-9 30,0 79,11 118,13l-65 61c25,20 133,57 175,71l-107 50 159 -20c-54,36 -10,6 -19,113l-976 18c-6,29 28,46 -59,62 -91,18 -50,-29 -149,18l62 41c-89,81 -16,135 -284,165 -140,15 -266,-29 -385,-24 -134,6 -201,100 -312,109 -125,11 -28,-83 -314,-100 89,-85 65,9 134,-41 -147,-44 -131,-9 -271,-3 106,88 3,15 59,100 37,55 52,12 78,88 8,66 -55,65 -106,158 -104,-3 -183,-43 -259,31 -59,-171 -129,-37 -293,-131l-26 -14c-43,-23 -20,-14 -54,-36 -164,-102 -58,77 -290,-140 80,-13 93,-4 73,-133l-265 -5 -5 -72 -52 6c-182,-11 -31,242 -500,116 -110,-29 -244,-32 -344,-58 -36,-10 -86,-42 -145,-59 -43,-13 -132,-26 -152,-50l164 2 -61 -102c-102,-141 -204,-20 -205,-20l-49 41c-59,48 -84,62 -139,21 58,-95 50,2 139,-72l-148 -44c-70,-14 -121,-9 -177,1 40,76 22,-42 39,57 -122,93 -120,122 -302,103 -189,-20 -168,5 -232,21 -67,17 33,-43 -47,2 39,90 35,34 73,109 47,-67 20,-41 107,-79l-75 84c228,115 521,116 581,162 -102,49 -609,45 -789,-3 -28,-7 -80,-37 -122,-46 -62,-14 -108,-1 -154,-23 -51,-24 -3,-9 -48,-78 -133,18 -16,44 -135,36 -85,-6 1,-23 -116,-31 -108,-7 -238,-19 -341,-22 -11,69 71,-41 20,55 -266,-6 -229,52 -449,-103 -57,-123 57,23 -6,-68 -26,-38 -41,-27 -59,-61 -64,-122 61,91 -45,-158 -35,78 22,41 -42,67 -14,-121 -10,-291 54,-386 55,-81 17,-62 76,-156 79,-128 -14,-60 35,-155l-108 -56zm1297 66c0,-3 -4,-8 -5,-6l5 6zm6309 760c47,-68 132,-35 234,-64 377,-107 448,-206 596,-241 64,-16 151,-48 146,-124 -4,-68 -157,-29 12,-109 110,-53 89,-97 180,-110 154,-22 74,44 180,-83 150,59 120,24 122,287 -105,47 -251,95 -349,149 -101,55 -198,122 -301,179 -163,89 -668,212 -820,116zm-2063 -1027c66,57 75,32 148,-7 151,-80 16,-24 143,-175 111,1 219,48 324,62 113,14 227,12 338,37 5,25 49,-6 -35,53l67 18c-154,19 -349,19 -490,49 -527,113 -350,24 -436,27 -82,34 -7,28 -138,42 -59,6 -91,3 -130,31l248 3c-48,22 -260,32 -317,30 28,-80 65,-46 93,-117 27,-68 -20,-18 29,-97 16,-27 18,-25 21,-29 89,18 107,21 190,19 -22,48 -51,0 -55,54zm-925 -223c-23,29 24,13 25,13 42,19 -6,-36 -25,-13zm157 297c-81,-19 -322,-31 -430,-104 44,-67 58,-126 279,-156 -62,-50 -42,6 -48,-67l102 38c78,-151 384,-75 499,48 -17,54 -33,55 -66,81l100 115c-93,149 -294,77 -436,45zm3428 -526c52,34 76,57 86,124l-168 33 82 -157zm-1637 -495c145,-45 131,-88 218,-195 2,-3 5,-7 8,-10 84,-105 38,-36 103,-72 70,-38 38,-73 151,-134 82,35 -18,-2 50,49 54,41 -15,-16 57,20 -72,88 12,111 10,209l-96 41c28,63 -6,2 73,53 -59,100 -81,113 -187,157 78,62 58,-13 131,44 28,22 44,43 49,86l-125 50c62,44 30,20 106,8 -84,127 -525,222 -599,219 97,-54 31,-36 90,-104 -83,5 -91,41 -173,66 -237,74 -189,24 -244,12 -157,-33 -12,-25 -125,-42 -31,56 13,73 -100,69 5,-112 53,-26 -57,-172 46,-12 85,-18 125,-36 200,-91 255,-72 219,-191l-128 -10c44,-155 146,-104 200,-115 -2,27 -29,5 12,65 48,-5 170,-49 232,-67zm495 204c64,3 -25,-26 -36,-14 -22,24 -2,11 36,14zm-5751 -439c79,-52 -7,24 84,-24 54,-29 33,-39 85,-58 30,-10 180,0 218,0 167,2 489,-92 677,-141 130,-33 61,-19 177,33 164,73 197,33 256,105 29,36 27,4 48,67l-205 42c124,172 366,186 495,311 -162,98 -501,3 -692,-89l-658 -179c-118,-25 -410,-11 -485,-67zm910 -353c-83,41 -193,-3 -282,-27 -15,-36 -23,-43 -46,-77l186 -32 142 136zm4148 -165c61,-30 50,4 141,-54 -64,-25 -182,35 -265,36 37,-101 76,-143 194,-164 -80,-35 -44,19 -67,-45 123,-15 146,-37 270,-29 115,7 127,-28 177,81 -66,51 -107,29 -192,44 99,57 124,-27 180,82 -81,70 -48,13 -145,42 26,47 1,-11 68,43 -111,65 -121,80 -248,130l-169 50c-44,18 20,7 -51,34 -15,-45 18,10 -15,-50l-162 13c73,-60 75,-5 127,-76l-99 -41c0,-85 18,1 -7,-88l68 -32c40,78 -3,6 16,60 86,-25 41,-5 97,-6 116,-2 10,6 82,-30zm-72 180l0 0zm-448 -905c10,-4 37,-79 98,18l-126 44c72,-1 80,-23 154,-10 121,20 51,13 97,79 14,-1 38,-118 162,70 48,74 -47,-9 35,59 -41,86 13,11 -77,57 60,34 68,17 60,76l-10 23c0,1 -3,5 -3,6 -17,30 -1,-6 -17,30 -62,143 -46,82 -171,152 -133,76 -79,82 -251,89 -107,4 -178,-5 -228,52 160,77 162,-94 283,31l-138 11c-15,118 -19,111 -123,128 106,0 291,-23 335,4 -7,84 -27,95 -122,119l-1447 49c529,-121 206,-169 330,-185 92,-12 151,-47 214,-56 90,-13 132,-18 166,-102 -126,-13 -204,75 -282,26l140 -34 -87 -40c48,-6 137,-20 183,-32 78,-21 78,-47 135,-53 172,-20 36,30 235,-96 -31,-95 -23,-21 -111,-96l140 -94 -156 8c77,-84 386,-145 496,-228 -276,20 -533,87 -590,91 26,-54 63,-60 110,-95 78,-58 43,-46 86,-111l480 10zm-455 465c0,-3 -5,-8 -7,-6 -28,26 9,8 10,8 0,0 -3,-1 -3,-2zm-40 101c53,51 -51,-49 0,0zm-265 143c-38,-23 -127,-10 -162,25l162 -25zm-928 -1088c64,-96 255,-179 374,-192 120,164 84,-36 143,86 -23,57 28,16 -64,45l-449 85c-75,11 -108,38 -167,-5 40,-84 -37,-14 163,-19zm1391 124c43,-56 87,-82 131,-133 38,-45 74,-106 113,-145 41,76 -32,92 18,208l-262 70z"/>
   <path class="fil0" d="M16572 5995c-59,-92 -25,-28 -70,-61 -79,-60 -10,7 -36,-63 -32,-87 -263,-116 -335,-153 -80,-41 -87,-39 -173,-60 -300,395 -211,270 -9,526 49,-41 2,1 36,-42 1,-1 4,-5 5,-7 1,-1 4,-5 5,-6 1,-1 3,-6 4,-7 1,-1 -7,-23 122,-32 30,-54 -33,-60 97,-83 93,-17 90,-8 113,47 79,-33 2,17 37,-57 82,12 122,78 204,-2z"/>
  </g>
  <g id="_505264128">
   <path class="fil1" d="M3151 7188l75 -52c-77,-50 -48,-15 -18,-85l-124 -5c2,-23 82,-247 101,-303 -83,4 -71,32 -176,38 -7,55 4,50 -36,87 -39,-59 -48,-144 -38,-210 -139,76 -78,113 -113,239 -126,31 -49,-64 -52,-132 -4,-81 -68,-71 -59,-193 100,3 64,88 123,-5 -63,-32 -86,5 -152,-83 -99,-131 -59,-81 9,-129 -92,-13 -64,19 -120,5 74,-44 323,-4 412,22 117,34 68,38 163,89 109,58 94,19 101,108 115,34 292,147 345,255 -88,61 -89,0 -177,90 27,60 -11,22 66,44 -36,61 -70,51 -82,138l149 62c74,5 26,3 52,-15l-131 -81c68,-69 164,-99 236,-236 27,-51 -6,-6 37,-53 77,-83 25,-59 74,-121 90,-6 86,34 157,38 81,5 44,-70 122,3 51,-21 -2,14 55,-50 31,25 89,80 172,45 57,-24 -63,13 45,-32 43,22 369,24 442,23 249,-4 206,-86 426,52 26,-46 1,-21 36,-74 36,35 46,34 88,73 110,-40 -52,-26 91,-53 147,-29 133,25 135,30 25,50 -26,47 -31,101 -1,12 20,58 20,121l193 20c-41,-56 -35,-40 -1,-113 -41,-21 -54,-19 -88,-66 46,-73 67,-105 163,-109 76,-3 162,24 196,87l28 -56c169,-5 245,-25 273,20 23,-50 -25,8 17,-73 174,-6 288,-32 466,-32 233,1 369,35 713,35 316,0 28,64 413,-13 35,-6 84,-9 120,-4 90,13 91,47 100,59 -128,134 -551,127 -871,208 -53,13 -113,9 -165,1 -164,-24 -52,-28 -131,-62 -170,-3 -228,21 -376,33 73,40 43,-13 66,43 -50,-8 -48,-38 -84,33 -5,9 -15,28 -21,40 -39,7 -67,3 -100,9 -77,14 -4,9 -58,22l15 64c5,17 -7,5 10,27 47,4 95,-10 133,-1 90,22 13,43 116,59 10,2 148,-15 239,110 -55,33 -108,6 -175,0 11,101 32,37 54,120 -90,1 -63,-4 -138,-31 -2,92 9,30 29,101 -57,3 -117,14 -161,17 -104,7 -160,-52 -304,18 -49,23 -67,42 -127,52 -145,24 -415,-96 -572,-126 -61,-78 23,-44 -106,-107 -69,-33 -76,-55 -149,-54 -87,1 -76,19 -172,-12 -87,-28 -98,-27 -195,-21 2,5 34,19 30,48 -145,8 -335,43 -467,46 -148,3 -339,-50 -484,-50 -52,-113 -137,-49 -280,-55 -58,82 -60,105 -321,53 -66,-13 -90,-42 -159,-55 -52,-10 -42,24 -92,-36zm-732 -234c95,-52 139,-21 252,-15 154,234 -96,132 177,235 86,33 49,-11 139,-15 13,70 24,41 7,88 -96,32 -35,-77 -142,-20 17,51 -37,12 145,83 0,0 -16,-73 124,-37 131,34 264,101 351,133 54,20 155,35 217,36 8,-52 25,35 -9,-18 -40,-63 -21,31 -13,-18 161,-3 437,230 513,227 98,-5 -44,4 59,-37 73,88 107,75 148,80 118,13 139,188 382,114 242,-73 143,76 328,10 30,-11 7,-13 79,-31 372,-90 136,-80 274,-275 185,21 137,79 236,120 30,13 93,29 132,45 59,25 90,52 131,68 9,35 -37,4 9,58 50,57 111,53 167,83 7,34 -8,-24 -8,45 94,32 343,77 402,115 -15,9 -797,167 -856,168 -333,2 -704,-31 -1032,-2 -171,16 -294,-31 -443,-17 -467,43 -839,-321 -1088,-437l72 -28c3,-2 8,-5 11,-7l145 -86c-23,-57 -187,-118 -249,-143 -205,-84 -576,-330 -660,-522zm1529 -1809l73 107c52,25 116,50 175,76 57,25 144,31 216,34 112,3 -41,-5 45,-12 90,-7 215,66 297,75 -36,-90 -84,-64 -142,-122 52,-52 64,-25 125,-71 -28,-102 -83,-177 -180,-213 -103,-38 -39,4 -106,-39l83 -89c1,-2 3,-7 5,-11l-105 -42c53,-23 65,-48 126,-52 67,-3 3,18 72,-1 45,-11 31,-20 104,-22 117,-4 118,22 205,36 69,11 93,-14 169,5 25,62 -37,20 20,113l18 -22c19,-30 30,-83 61,-99 93,-9 272,42 358,18l-17 -94c255,-39 307,85 398,-70 278,60 136,29 230,101 54,41 35,-2 83,46 -131,12 -85,-15 -171,-26l48 80c-120,14 -234,39 -354,-1l-44 78c-88,-5 -117,-19 -195,-16 -43,1 -107,-20 -129,13 52,38 137,29 213,90l55 40c2,2 6,5 8,7l79 40c23,62 -3,4 10,55 80,-28 36,-1 85,-60 0,2 -14,1 13,48 58,-11 88,-23 84,31 0,1 -2,6 -1,9 70,-28 32,-5 74,-77 269,17 257,-52 599,-9 107,14 36,12 141,58 12,-57 -18,4 11,-48 281,20 305,63 418,87 103,21 7,5 60,-19 64,-28 43,49 -6,72 67,43 28,6 59,54l78 9 46 -58 33 72c71,-10 60,-24 85,-27 25,-4 79,30 275,0 -31,-68 -38,-27 -17,-64 182,-12 111,43 218,-73 139,58 150,50 289,6 88,-28 174,-55 260,-93l50 56c55,-26 73,-75 143,-65 100,14 21,47 176,2 92,-26 108,1 200,-33 57,-20 117,-32 180,-53 218,-73 443,-186 472,-445 -30,-54 -13,-4 -44,-59 -25,-44 0,-26 -31,-71 -81,-7 -33,29 -102,-5 -32,-16 -17,-46 -104,-51 -62,-4 -148,63 -211,81 -33,-24 -34,-37 -56,-51 -55,-36 -28,3 -90,-42 21,-13 -9,0 40,-19 109,-41 144,5 245,-38 24,-10 8,-6 34,-11 142,-26 95,-60 228,-14 122,42 65,32 135,111 122,0 180,-22 252,77 71,97 95,74 193,19 109,-61 271,-205 330,-309 66,-119 124,-401 89,-538 -58,-228 -151,-259 -365,-278 65,-48 157,-87 187,-183 23,-77 17,-277 -41,-334 -75,-74 -233,-28 -322,-34 -113,-7 -225,-49 -342,-23 -57,28 -13,-4 -25,35 -24,73 42,-25 -3,24 -23,25 -23,-14 -42,-37 -341,38 -485,-12 -788,-48 -118,-14 -137,15 -272,-30l-479 -69c-277,-42 -551,-47 -832,-38 -112,4 -155,28 -251,46 -69,12 -203,3 -283,6 -90,5 -178,22 -268,31 -67,7 -198,38 -246,36 -181,-5 -371,32 -553,3 -121,-20 -122,-53 -261,-48 3,-131 -18,-152 -27,-261 131,20 3,13 72,86 78,-195 -14,-365 -193,-477 -155,-97 -297,-214 -445,-323 -137,-101 -310,-211 -454,-310 -93,-64 -181,-78 -252,-123 -94,-60 -27,-145 -164,-228 -238,-143 -374,-97 -647,-101 -458,-7 -948,-107 -1384,77 -469,198 -314,37 -494,274 -147,-55 -101,54 -100,147 -22,16 -56,30 -74,49 -30,31 -20,46 -50,75 -34,32 -25,2 -75,49 -30,28 -25,38 -56,69 5,68 21,-24 17,72 -4,70 -60,196 -131,160 -46,-23 50,-9 -31,-21 -85,92 -59,56 -111,79 80,58 31,-17 78,3 79,33 -126,101 -159,268 35,14 31,4 37,7 34,17 -3,87 -18,111 -74,-1 -56,-38 -130,-3l-41 221c-54,71 -85,56 -135,170 -37,84 -30,138 -81,239 -40,80 -52,152 -87,233 -60,142 -33,127 -53,267 -22,152 -116,344 -139,503 -31,215 124,281 207,426 -4,129 -75,264 10,381 221,20 193,-238 487,105l-50 28c121,237 -19,177 56,352 63,151 12,264 84,364l78 4c63,110 124,303 202,391 135,151 214,135 383,209 -172,197 -61,171 51,300 45,51 141,258 167,334 151,443 186,210 247,431 25,93 37,-1 64,132 46,226 7,52 149,186 37,35 70,74 113,101 58,36 104,12 168,5 46,-6 53,-4 90,-15 70,-22 8,-26 112,-18 -19,120 -25,5 -37,111 197,202 507,432 532,461l31 40c12,14 31,29 47,40l152 133c108,70 24,72 200,175 2,1 7,15 42,24 33,9 60,-10 99,-21 97,-26 139,-46 257,-42 -19,-40 -89,-37 -76,-110 14,-76 80,-84 142,-65 24,67 4,75 35,145 55,128 -2,63 6,238 11,240 -79,122 107,308l-49 54c130,98 181,12 338,135 21,128 -42,67 42,206l114 7c21,111 -62,68 -16,147 40,69 84,7 142,1 81,57 109,109 165,191 78,65 138,-46 236,230 20,57 42,105 81,149 42,47 84,36 155,37l48 -114c33,0 71,-7 94,-7 70,-1 18,20 66,8 65,-65 28,-194 97,-259 45,-44 63,-17 104,-73 34,-46 28,-102 44,-151 35,-109 105,-33 158,-217 22,-77 15,-243 -32,-298 -45,-19 -179,9 -260,-42l38 -80 -96 -72c84,-96 88,-23 224,-44 85,-13 174,-49 259,-64 218,-41 285,-62 405,-237 204,30 108,148 426,17l367 -184c267,-80 359,-77 509,-328 132,-221 -94,-170 247,-395 199,-130 349,-118 642,-462 175,-205 395,-311 534,-552 80,-138 56,-151 43,-297 142,-16 154,0 270,-103 233,-208 306,-493 394,-780 44,-142 123,-472 206,-579 61,-78 139,-144 135,-252 -6,-145 -104,-163 -226,-157 -111,37 -426,389 -548,464 -122,76 -268,98 -365,152 -51,28 4,23 -136,79 -74,29 -112,72 -182,80 -93,-33 -38,-60 -171,-27 -101,26 -136,24 -239,31 -84,55 16,30 -116,62 -65,17 -98,35 -152,10 -13,-69 28,-84 37,-138 -104,36 -246,22 -335,69 -24,13 -60,38 -93,49 -31,-79 15,62 -6,-26 0,-2 -1,-8 -2,-10l-6 -22c-231,40 -478,41 -712,68l-679 81c-30,48 7,19 -55,53 -109,60 -19,-7 -53,70l-123 8 38 59c-118,41 -145,48 -271,36 -43,-67 -30,-135 -103,-177 -90,-46 -252,0 -360,4 -270,9 -246,28 -357,33 -303,17 -502,-85 -696,25 39,22 46,13 90,33 50,22 37,30 90,56 -131,92 -20,-9 -61,96 -86,12 -190,-2 -268,19 -129,34 -247,16 -380,-16 -101,-25 -14,-32 -102,-5 -78,24 -679,-57 -828,-59l-520 -91c-21,-35 -36,-79 -58,-119 -39,-74 -26,-36 -96,-80 10,-70 26,-33 47,-103 -121,76 -76,124 -122,207 -71,-33 -276,-152 -297,-210 -1,-2 -2,-8 -3,-10l-15 -38c48,-32 87,-49 138,-76 70,-37 76,-56 149,-83 77,-28 286,-79 367,-78 38,9 65,58 107,79 211,106 311,-70 377,129 155,10 176,146 330,56 -5,-91 -20,-27 -66,-98 26,-54 82,-156 152,-154l161 33c97,22 133,-13 160,101 16,-25 22,-47 21,-53zm-637 -341c-30,63 -66,30 -139,55 -69,24 -2,1 -46,27 -133,78 -72,-36 -191,24 86,48 46,-19 72,52 -70,5 -71,5 -132,-8l-39 -7c-53,-2 61,0 -17,1 -1,0 -6,1 -8,1 -65,-1 -133,-48 -174,-74 73,-38 16,17 120,14 -45,-44 -32,-53 -119,-71 18,-84 29,-74 -71,-91 45,-50 26,-51 -42,-90 -72,-40 20,52 -20,-12 -12,-17 -5,-5 1,-52 -55,45 -8,31 -63,49 -4,-75 8,-84 67,-125 17,39 -4,29 8,68l80 -45c63,75 58,20 122,125l93 122c37,-14 47,-28 90,-52 -23,-74 -31,-25 -24,-77 98,-27 77,143 188,-1l-92 -34c55,-51 -11,-51 91,-79 55,-15 106,-18 154,-38 -90,-4 -131,-25 -212,-19l0 -33c0,-1 -2,-6 -2,-6 -2,-3 -8,-8 -11,-10 -24,-13 -4,-2 -42,-9 -214,-45 -87,32 -252,-10 -29,-8 -47,-16 -54,-18 -42,-15 -87,-1 -139,11 -104,24 -107,54 -212,56 -9,32 31,-9 4,51 -87,-34 -7,44 -87,2 -11,112 17,77 -59,121 106,20 58,84 113,159 72,96 241,158 359,167 32,3 37,-15 66,-5l-16 80c-154,48 -284,22 -435,12 -89,-6 -147,26 -230,18 -128,-12 -54,-78 -123,-101l-34 110c-121,-5 -250,5 -365,-20 -137,-28 -144,-45 -216,-140 -63,-8 -55,11 -94,-2 -3,-1 -8,-3 -11,-5l-63 -31c-78,-12 -19,55 -137,-86 -66,-77 -207,-163 -236,-259 188,-76 514,-119 681,-260l81 -44c60,-23 73,-14 145,-12 4,-69 7,-99 8,-157 68,-55 58,8 84,-54 31,-77 -28,15 -27,-64 93,-41 47,13 112,-51l137 -112c79,-49 461,-150 574,-206 -474,-9 -253,-9 -551,50 -197,39 -139,6 -321,4 -124,-1 -71,8 -154,-42 -108,-66 -219,12 -240,-155 -22,-71 -3,75 10,-21 8,-64 4,-29 -10,-54 -62,88 -42,50 -124,107 -45,-85 90,-13 -34,-94 -16,30 -13,46 -53,79 -84,-147 -19,-7 -131,-95 -4,-49 1,-61 42,-101 66,-65 15,11 62,-77 52,-99 77,-90 169,-138 102,-53 238,-157 356,-229 83,35 67,36 178,34 90,-3 82,44 143,-6 -59,-32 -35,8 -86,-42 249,-76 180,-45 409,17 59,-46 19,-17 50,-74 85,-3 303,27 372,75l-37 60c-55,-11 -78,-11 -140,-16 -28,58 -61,18 -125,60 47,56 21,26 109,20 240,-16 266,53 356,64l213 3c81,5 158,30 245,40 6,17 12,53 14,58 9,22 -3,5 22,31 25,26 41,45 66,58 77,41 177,12 243,61 -50,38 -90,27 -162,23l-141 -5c85,39 214,-4 291,65 24,21 27,84 113,21 58,-42 17,-58 113,-71 -57,-36 -30,-2 -89,-34 52,-30 38,-21 90,-4l260 81c125,30 182,43 288,120 -86,48 -50,-58 -87,35 42,60 93,36 173,42 -60,37 -117,39 -159,65 16,16 39,42 57,57 81,67 49,54 -25,113l99 29c-66,47 -38,15 -63,75 -37,89 5,24 -78,64 23,12 88,22 125,23 89,4 36,-39 106,17 -54,22 -128,49 -174,42 -41,-6 -102,-23 -165,9 72,36 54,-17 123,36 -93,4 -112,-23 -174,39 25,55 27,48 104,62 49,9 112,21 158,20 18,-48 -21,14 20,-50 93,-8 143,38 243,-21 -44,-54 -37,-59 -104,-66 -11,43 27,-48 11,64l-100 7c30,-178 85,-9 110,-180l106 -16c-18,-98 -47,-71 -72,-130 289,-57 109,-25 234,-109 33,-22 29,61 32,-84 -42,-2 -252,6 -287,11 -156,20 -89,56 -226,-8 205,-10 208,1 384,-86 11,17 18,33 48,40 119,28 44,5 73,-14 -47,-65 -40,-36 -111,-40 70,-7 215,-37 265,-79 39,-34 52,-66 78,-100 60,-79 25,-18 100,-63 -61,-47 -61,-15 -54,-123 13,-177 136,-163 199,-336 74,31 -15,28 66,29 81,0 -8,-3 66,-26 25,24 64,50 83,75 63,81 -19,48 67,102 52,-63 21,-54 51,-109 76,43 72,10 129,7 55,-3 64,16 120,28 70,15 157,-5 226,-14 23,29 18,34 9,68 -109,21 -307,-21 -397,11l20 64c41,70 27,-13 18,27 -132,6 -245,11 -374,19 92,69 219,10 315,58 -73,29 -293,6 -388,21l69 38 -50 42 156 -11c-129,55 -52,-27 -119,100 -105,-2 -133,35 -212,85 47,35 192,44 16,116 126,59 -12,-5 35,101 18,21 75,5 116,-6 88,-24 29,5 109,-1 38,-62 -5,-10 24,-65 99,65 81,12 215,-1 -18,-46 -5,-13 18,-86 -38,-25 -88,-57 -105,-103 92,7 25,9 83,35 48,21 48,8 99,24 132,41 8,90 135,97 52,-87 -24,0 3,-79l90 48c87,-74 -1,-34 112,-47 23,-3 143,-31 159,-38 70,-32 128,-159 183,-193 -37,-91 -27,33 -40,-56 51,-18 71,-8 120,-26 56,-22 41,-35 82,-57 130,-70 336,-95 464,-161 63,-32 93,-13 148,-77l-87 -37c96,-9 99,-23 151,46 78,-44 57,-28 147,-38l-49 -65c-40,37 -23,35 -74,42l34 -59c81,4 121,49 142,86l170 2 26 -72 212 23c84,-2 97,33 184,45 84,11 106,-4 192,21 112,32 226,56 336,91 62,19 105,25 168,49 82,32 111,-12 202,44l199 121c-53,20 -19,0 -61,8l-138 -17c-51,-18 14,-18 -50,-9 -100,14 -154,154 -263,3 -18,97 -79,18 -136,32l111 50c-44,62 -75,82 -134,26l-52 59c75,-2 91,-12 149,25 -5,2 -11,5 -16,6 -4,1 -10,5 -16,6 -38,9 -74,29 -152,-55 -69,-74 -47,-8 -129,-97 -45,56 -82,35 -159,51 -94,19 -39,33 -137,63 52,30 117,31 170,44l25 8c2,-4 9,3 13,6 -72,46 -16,30 -103,67 143,5 62,-35 147,-22 155,22 177,195 330,37l4 35c1,28 -23,6 -2,34 62,-22 48,-107 174,-86 34,5 -5,-26 64,25 -65,137 -359,112 -508,111 -56,-10 -56,-62 -71,-107 -378,-1 -812,109 -1286,53l-245 -2c-178,6 -375,3 -553,0 38,30 271,87 334,92 7,60 3,84 32,122 2,3 8,11 11,14l68 55c-64,38 -37,1 -71,84l232 59c124,-119 13,-42 176,-58 -26,-72 17,0 6,-64 -12,-63 -18,13 -36,-69 276,-19 160,74 513,105 19,38 8,-4 1,67 187,11 91,49 144,105 45,49 146,23 215,23 -61,-46 -117,-27 -177,-76l158 -31c-67,-52 -93,-27 -159,-70 87,0 190,13 265,-20 49,-21 30,-42 86,-21 48,18 10,11 40,53l85 -9c4,-27 132,-150 195,-21 91,1 194,-12 280,3 105,19 173,44 111,99l106 13c-509,45 -360,14 -426,-80 -71,20 -3,-14 -33,49 -96,-6 -162,8 -253,52 56,42 115,11 211,45 -78,48 -356,-19 -479,4l105 33c-32,68 4,30 -49,78 111,12 79,-23 155,-17 86,6 49,18 113,-32 84,26 120,33 211,41 167,15 172,-1 206,57 24,42 36,-28 57,73 -66,44 -236,42 -331,46 86,48 117,36 208,66l-26 73c118,21 72,22 198,10 53,-5 117,5 151,37 -171,20 -384,55 -549,60 -201,5 -392,22 -588,24 -109,1 -182,1 -285,14 -177,21 -372,-17 -532,37 -40,13 -78,21 -122,-10 -120,-85 66,-64 -304,-106 24,-63 18,7 36,-86 -62,-36 -43,-10 -104,-26 64,-11 199,-52 227,-101 -116,-36 -147,12 -354,-55 -53,-17 -46,0 -70,-7 40,-27 102,-30 135,-59l-37 -50c-110,44 -32,2 -107,99 -124,-99 -88,-15 -189,27 -65,28 -78,0 -153,-3l-28 85 -234 86c-108,5 -298,-31 -412,-45 -222,-28 -442,-7 -663,-34 -126,-15 -99,22 -185,24 -50,1 -142,-21 -199,-26 -52,-4 -63,-6 -116,3l-86 29c22,59 52,52 99,126 -45,53 -31,23 -72,32 110,60 149,40 209,146 101,1 101,6 179,56 -59,31 -25,3 -62,17 -2,0 -51,26 -59,30 58,7 107,41 117,96 0,3 -1,29 0,46 -109,4 -73,-51 -158,-14 63,70 173,49 235,97l-287 -41c-16,53 -24,-49 12,18 29,55 18,-36 8,21 -101,18 -157,21 -268,14 7,-68 28,-42 2,-117l-111 -9c7,-62 14,-49 15,-51 15,-61 28,36 3,-21 -117,-38 -100,-93 -203,-7 -57,47 -136,30 -224,26zm6397 -1390c-175,9 -380,40 -555,14 -159,-24 18,-59 37,-67 92,-42 69,-88 107,-122 29,64 -21,6 14,44 43,47 44,12 48,12 36,-7 52,-52 106,1 64,62 -13,78 68,99 69,18 42,-16 84,-70 256,26 -65,-93 253,6 58,-48 16,-20 51,-74 84,37 163,2 210,99 -131,17 -8,-16 -122,-46 -75,57 36,92 -216,105 -45,-72 22,-72 -80,-67 -54,75 21,-6 -5,66zm-7783 -982c58,-67 241,-208 322,-242 236,-100 286,-41 514,-56 117,-7 295,-146 424,-141 144,6 263,190 204,341 -121,43 -86,-28 -226,4 -106,25 -368,68 -466,37 -449,-141 25,95 -772,57zm1977 -392c43,9 338,-96 297,193 -295,81 -480,43 -529,-260 47,-26 97,-35 150,-27 30,41 21,81 82,94zm-2034 -424c95,-16 144,-61 286,-74 179,-15 101,-91 250,-107 -20,111 -156,142 -257,174 -79,26 -263,76 -343,72 20,-38 -8,-215 211,-183l-147 118z"/>
   <path class="fil1" d="M8904 2288c-3,-19 0,12 21,-51 -113,-13 -95,-41 -180,34 -63,-21 -129,-53 -141,-115l-109 -12c-19,-41 -4,8 -4,-62l-300 -24c47,-31 45,-16 85,-27 -58,-97 17,44 -180,-16 -99,-31 -39,29 -122,0 -73,-26 -9,-20 -63,-44 -65,-29 -93,12 -174,-33 18,-102 89,-105 185,-117 297,-36 357,-168 563,20 6,6 -23,59 106,-6 18,-74 -10,-10 4,-84 55,-20 66,-5 112,-32 89,-53 -101,-45 140,-74 47,-5 55,-3 95,27 -57,36 -45,7 -104,26l155 36 8 -71 414 78c8,59 38,28 -24,62 82,18 44,18 104,78 37,38 18,-14 38,47 31,91 -29,-10 -1,39 35,58 174,-72 213,-88 87,36 62,-7 122,69 -99,17 -73,5 -156,-9 68,69 135,55 224,47l-33 -63 110 -10c-59,-43 -101,-58 -164,-85 -64,-27 -74,-52 -147,-80l-372 -112c35,-80 77,-74 75,-181 -5,-254 -162,-257 -474,-309l-840 -211c-222,-100 -643,-24 -859,77 -93,43 -35,53 -157,93l-348 186c-50,34 -7,23 -57,65 -60,50 -45,-8 -78,60l119 -35c-92,135 -229,122 -333,200 -52,39 -109,84 -180,85 -66,1 -64,-36 -106,2 -39,36 -1,16 14,87 -39,-1 -51,-3 -71,-31 -35,-50 -12,-27 -1,-88 -60,0 -98,-6 -108,67 -1,3 0,51 -1,62 -3,140 -85,159 -62,420 69,44 33,-10 112,32 -32,335 82,199 266,206 84,3 183,6 278,10 107,3 174,30 267,33 103,3 214,-12 312,11 121,29 558,44 670,29 96,-14 287,-79 400,-3 -64,33 -39,-10 -92,28 47,41 44,17 110,-18 104,-56 385,-75 507,-82 12,-62 3,59 -3,-14 -3,-36 -11,24 0,-22 122,-17 35,15 140,-27 -25,96 21,23 -32,117 258,0 148,-117 360,-214 -44,-31 15,-13 -69,-24 43,-7 26,6 70,-24l-113 9c-21,42 -12,30 -9,51 -87,-40 -60,-47 -132,5zm-834 -871c62,-32 17,11 105,-16 102,-32 267,-34 264,103 -73,16 -323,-33 -369,-87z"/>
   <path class="fil1" d="M6674 9109c-73,25 -238,207 -280,274 37,73 87,74 164,195 93,-35 37,29 165,-47 52,-31 111,-70 162,-104 72,-49 72,-65 107,-141 33,-72 72,-104 105,-161 73,-125 19,-352 -149,-275 -41,18 -43,33 -80,43 -93,27 -178,-36 -194,216z"/>
   <path class="fil1" d="M3564 3665c-157,-4 -40,121 -181,49 -28,54 19,75 -87,68 36,-17 39,-4 35,-31 -24,-1 -74,-11 -77,-11 -58,4 -23,21 -87,40 -49,15 -9,-3 -46,6 -41,9 4,-5 -31,11 -139,64 -123,23 -189,59 75,41 13,-17 88,20 -83,62 -102,82 -210,45l35 -72c-61,-9 -164,5 -207,-16 -84,-41 -32,-77 -17,-127l-131 -2c69,22 102,-28 91,63 -10,75 9,10 -34,43 -91,70 -222,49 -302,59 98,48 158,-10 209,26 -30,23 -135,56 -179,77 39,19 76,8 119,0 -71,107 -48,8 -157,61 94,71 444,75 567,54 53,-77 1,-33 21,-85 267,-22 170,-50 437,-19 92,11 67,-13 130,-5 81,10 37,32 108,34 152,5 167,-93 188,-127 24,-39 7,-21 38,-34l29 -7c1,-4 7,-1 10,-3 -34,-62 2,-3 -38,-30 -46,-31 21,19 -18,-10 -68,-52 56,2 -17,-40 -119,-21 -78,18 -171,20l74 -116z"/>
   <path class="fil1" d="M10320 2101c16,76 -11,-11 66,29 -15,54 -31,50 -73,72 81,48 39,8 42,43 -100,30 -42,-42 -155,61l-81 -37c-9,24 17,24 0,60l-158 -23c50,85 91,77 137,112 -18,31 5,4 -24,28 -46,39 -94,48 -151,64 73,33 82,9 128,86 -46,31 -88,24 -88,68 1,75 150,-37 195,-48 90,-24 54,21 81,-44l120 0c39,-57 -29,-20 32,-78 45,-42 66,-38 92,7 5,-80 17,-55 -30,-97 56,-40 11,-14 69,-34 -81,-6 -53,14 -108,-24 86,-71 39,1 157,-82 9,-67 16,-82 -21,-138l-56 91c-68,-108 26,-65 -42,-115 -42,-31 -89,-25 -132,-1z"/>
   <path class="fil1" d="M1975 4407c-129,11 -103,-48 -245,40l172 6c-85,157 -273,-18 -314,114 36,24 361,57 407,59 201,4 88,-106 -16,-129 87,-80 0,-40 65,-105 62,-62 26,43 23,-27l-134 0 42 42z"/>
   <path class="fil1" d="M3834 7898c115,19 167,-39 68,-115 225,-18 268,96 346,42 -7,-23 -31,-44 -32,-45 -49,-52 -515,-133 -580,-139 50,43 95,35 147,94 82,95 46,70 51,163z"/>
   <path class="fil1" d="M3690 4116c23,35 -15,-2 31,42 -75,16 -67,32 -123,73 76,38 61,15 87,72 25,0 69,13 105,-55 20,-38 2,-69 -2,-113l-98 -19z"/>
  </g>
  <g id="_505267608">
   <path class="fil1" d="M20321 26005c-49,-51 -33,-74 -45,-117 110,-95 42,-41 61,-115 9,-39 60,-68 106,-81 150,-43 33,-5 125,-70 58,-40 76,-20 124,-54 -54,-7 -20,18 -45,-25 32,-53 59,-19 116,-121 33,0 6,-22 52,24 -31,-103 71,-91 125,-146 139,-142 111,-27 116,-185 240,-98 112,-102 179,-181 3,-4 70,-68 71,-69 57,-45 36,-23 35,-90 47,33 14,33 37,5 -6,-56 -46,-4 -15,-102 15,-51 32,-46 60,-90 49,-33 28,94 174,-179 37,-70 37,-38 59,-74 15,-24 -18,-52 47,-49 -34,-26 -35,-33 -66,-28l-13 4c44,-113 121,-106 158,-245l67 17c-44,-26 -19,-80 -4,-141 24,-99 106,-163 161,-251 31,-49 36,-81 68,-129l315 -406c11,-19 -2,2 16,-47 64,-20 0,32 70,-20 -5,-3 -24,-6 -26,-7l-26 -7c52,-82 118,-200 164,-267 92,32 -12,7 71,52 21,-26 41,-41 14,-78 -48,-65 -27,54 -41,-34 65,-81 75,-34 165,-30 0,-60 -30,-135 1,-171 50,-59 73,4 145,-53l-58 -70c131,-57 59,11 221,-270 159,-276 259,-547 292,-854 28,-265 42,-208 141,-424 46,-100 59,-393 13,-494 -66,-141 -115,-238 -202,-368 -72,-106 -171,-215 -253,-316 -167,-206 -140,-89 -194,-377 -40,-219 -2,-248 -174,-394 -104,-88 -232,-161 -323,-248 -41,-41 -470,-639 -477,-664 -16,-70 -23,-171 -39,-247 -97,-468 -206,-344 -407,-447 -83,-42 -226,-187 -317,-252 -93,-67 -301,-142 -305,-261 56,-41 241,-8 132,-181l53 -10c-24,-24 -173,-244 -57,-208 42,13 78,57 111,84 27,23 148,127 164,103 -127,-113 -353,-334 -356,-517l-127 -13c-75,-120 -110,-102 -179,-215 -44,-72 -104,-151 -172,-202 15,-296 -40,-231 -215,-479 -148,-15 -106,57 -267,-54 -298,-204 -102,-221 12,-422 139,-245 -207,-320 -378,-199 -71,50 -450,586 -506,669 -60,87 -324,381 -334,454l154 -89c-52,182 -128,120 -199,218 -50,70 -11,86 -46,168 -14,35 -56,103 -77,137 -130,218 -159,451 -301,559 -31,-48 -20,-23 -9,-67l-79 65c6,38 -25,-40 17,20 30,43 6,-25 16,28 -127,59 -68,85 -147,175 -80,93 -76,93 -62,206 -47,22 -34,-7 -53,33 -98,3 -93,-22 -129,-21 -32,36 -22,6 -21,52 1,36 1,-3 9,32 13,65 -2,79 50,135 -57,27 0,-7 -55,15 11,167 58,150 -77,261 -72,60 -84,113 -168,191 -4,38 2,-52 36,53l-102 74c63,50 28,52 -1,116 58,-34 37,-32 99,-30l-198 371c-47,-82 22,-38 -49,-72l-71 63c-2,-4 -4,-10 -5,-13l-12 -61c-1,-4 -1,-9 -2,-13l-6 -128c-44,123 -6,79 -85,202 -60,93 -6,-22 -67,74 -43,67 -3,44 -87,76 -340,129 -91,271 -112,388 -53,130 -377,332 -413,503 125,-59 140,-108 237,-178l90 34c-43,88 13,48 -56,121 -40,44 -45,51 -69,109 85,-3 149,-78 208,-120 -3,83 -37,63 -16,158l146 -71c25,-90 4,75 -3,-24l26 -64c2,21 -15,4 10,53l104 -52c27,81 22,56 -46,114l32 77c62,-56 150,-119 190,-181 18,-28 59,-22 33,-78 118,-11 56,-38 208,-41l52 102c112,-14 126,-7 232,54 72,41 142,74 231,75 24,62 76,55 127,101 150,133 226,118 279,144 -86,50 -266,-1 -363,-26 -150,-41 -229,-15 -375,-34 -130,-17 -152,-53 -256,-61 -105,-7 -421,-36 -479,-5 2,-77 6,-41 38,-81 12,-16 32,-48 47,-74 -149,-16 -62,41 -168,130 4,64 -2,-6 21,57 -96,10 -93,60 -185,91 -7,-83 30,-122 -4,-174 -33,-53 -53,-20 -109,-74 -134,88 -101,57 -247,57 -43,77 -75,238 -112,281 -51,59 -144,109 -211,194l87 23c-22,48 -9,48 -34,89l-158 196c-133,-2 -156,26 -264,-52 6,87 45,80 62,130 23,69 -9,87 -9,156l98 -15 22 117 -112 16c-44,85 -9,92 -47,150 -61,-63 -17,-88 -89,-180 -24,56 0,166 31,219 40,68 82,72 162,85 5,116 72,152 104,244 18,50 48,61 74,107 26,45 -10,-12 14,63l162 301c34,52 22,89 68,164 79,130 113,183 269,195 31,39 74,91 93,136 69,157 31,33 89,107 -16,11 -34,23 -41,28 -47,-53 -46,-120 -96,-157 -28,51 46,117 78,191 46,-6 20,-21 73,-21 -21,128 45,85 90,159 28,45 68,124 120,165 50,40 36,8 90,54 23,102 -13,187 16,269 124,86 55,-4 144,142l134 147c-101,99 -40,257 32,381 98,170 430,544 450,583 40,78 35,90 90,177 99,158 22,178 200,314 104,80 235,338 312,457 34,53 77,105 108,158 80,139 174,340 311,436 -60,89 -66,56 -142,104l6 143c75,60 27,36 113,-4 53,79 2,42 62,91 80,64 13,7 69,77 65,83 121,47 185,98 50,62 23,82 57,142 29,51 52,35 94,99l-68 23 79 183c74,108 33,269 199,295 156,24 88,-5 215,-19 18,37 11,31 10,54 131,-43 127,89 270,-17 73,-53 91,-163 128,-243 89,-193 73,-422 73,-619l82 40 10 -101 45 21zm-247 -799c-101,55 -22,-27 -132,-22 -1,0 -8,1 -9,1 -2,0 -7,1 -10,1 -43,-112 -25,-36 -100,-74 -6,-124 186,-322 277,-402 -24,-80 -22,33 -35,-55l247 -33c-9,42 -130,290 -158,320 -96,105 -190,78 -92,232 24,39 25,-18 12,32zm176 -1381c34,-86 -69,0 22,-98 58,-62 43,-31 126,-57 79,-26 215,-75 290,-81 -28,66 -117,147 -173,199 -80,74 -165,57 -265,37zm-351 -315c-28,-66 -20,-52 10,-96 94,-136 60,-117 372,-76 154,20 177,-12 275,26 122,47 154,-6 253,54 -80,149 -370,1 -653,32 -117,13 -97,-18 -171,-46 -14,31 -31,75 -86,106zm-566 -211c172,-162 105,-111 343,-133 69,-6 341,10 395,39 -56,35 -133,34 -212,31 -131,161 -46,143 -159,175l50 19c-134,19 -15,68 -189,2 24,-60 -8,-4 68,-44 -213,-95 -99,15 -296,-89zm-819 -476c108,-31 27,29 123,10 46,-10 20,-37 128,-11 -6,85 -62,-16 -26,58 130,-33 146,-56 264,27 116,82 31,-21 101,21 120,74 -90,0 26,19 20,3 24,-6 76,1l-71 55c44,31 10,4 57,37 123,87 37,63 -46,112 36,47 49,34 42,75 -110,46 -181,-51 -334,22 -116,55 -71,23 -184,49 -76,18 -54,44 -108,103 -51,-81 77,-128 56,-199 -33,-6 -237,46 -271,76 -124,-152 -146,0 -218,-69 -12,-45 78,-166 163,-201 129,-55 113,-98 260,-114 -29,-69 -58,43 -38,-71zm1883 -469c26,-57 -14,8 16,-58 68,42 62,27 120,49 -132,103 -86,20 -156,54 104,126 103,-41 223,104 -78,62 -1,-12 -133,25 -100,29 -57,-3 -165,0l-17 -52c-46,23 -73,56 -97,-12 82,-64 2,29 102,-4 25,-57 -22,-5 30,-131 42,-6 10,3 77,25zm14 108c-43,-30 0,-26 -55,-7 23,16 -6,44 55,7zm825 98c0,-71 -11,-58 49,-86 43,-21 58,-31 105,-30 -43,65 -27,18 -25,75 -58,59 -23,58 -129,41zm-4033 -408c83,-43 65,-6 73,-50 76,1 209,10 272,50 37,23 178,108 193,125 -78,33 -112,7 -174,-21 -78,-36 -71,-52 -165,-51 -25,50 -10,64 -9,115 2,45 4,15 -8,55 -10,34 4,3 -16,52 -62,-10 -59,-3 -97,-56 -49,-69 2,-82 -13,-139 0,-2 -2,-7 -3,-8l-27 -42c-15,-18 -8,5 -26,-30zm112 -13c3,83 -12,33 66,66 -27,-58 -19,-54 -66,-66zm3917 -19c22,-9 114,-42 132,-46 72,-16 54,5 135,-27 41,-16 208,-59 234,-56 21,79 -118,125 -183,159 -313,161 -264,49 -309,-18 -36,-54 -20,32 -9,-12zm-1443 -613c-50,71 7,29 -53,57 -33,-68 40,0 -24,-96l-55 73c-44,-57 -180,-50 -237,-121 214,-137 192,-22 338,2 54,9 85,6 139,4 19,7 0,20 39,43 46,27 -5,-34 47,24 -55,41 -120,52 -194,14zm-3576 -757c73,9 74,47 107,116 39,80 9,35 82,97 71,61 129,173 191,254 58,74 159,150 228,218 215,211 150,127 82,201 25,97 85,125 16,215 -131,-177 -247,-347 -348,-557 -65,-133 -88,-171 -179,-284 -61,-76 -161,-174 -179,-260zm1197 -1030c64,-47 139,-111 210,-69l-77 24 129 26c40,-90 -15,6 -3,-61l338 23c114,-42 -56,-32 72,-34l238 44c82,33 -7,-18 47,52l89 7c35,149 -19,58 138,114 157,57 507,56 626,133l-160 6 9 109c-52,12 -200,-11 -265,-15 -72,-4 -188,6 -275,6 -246,0 -364,-68 -519,7l156 73c-32,83 -67,-23 -50,52l122 38c-86,25 -69,-23 -75,38 230,72 215,14 186,114 154,19 108,27 228,75 111,45 275,40 386,98 45,23 -14,-12 22,16 101,76 -5,-66 125,22 -33,2 -88,12 -117,24 -179,72 77,118 158,72 42,95 70,84 191,114 117,29 105,113 212,49 14,91 70,135 161,112 52,-35 10,-63 37,-105 50,-78 -13,41 22,-25 -68,-48 -53,41 -85,-56l268 4c58,-73 30,-34 124,-55 156,-34 71,0 161,33l241 -75c73,15 -49,5 59,36 85,-92 77,-13 236,-45 113,-22 191,2 297,10 138,11 12,32 142,34 65,1 83,-27 143,-26 42,1 91,27 140,21 73,-10 18,-53 107,-8 30,29 -59,81 -85,103 105,11 56,0 134,48 -130,77 -330,-41 -464,-13 -6,1 -129,32 -132,35l123 71c-107,59 -224,-75 -304,-127 -79,41 -146,10 -64,107 9,-32 6,-81 63,-18 -63,34 -45,41 -134,32 -149,-14 -11,-4 -123,33 -26,8 -273,19 -333,25l-466 61c-143,7 62,-100 -278,34 72,57 63,-1 86,75l-305 26c63,68 101,78 179,61 111,-23 68,-39 179,11 -110,7 -417,57 -440,164 68,-26 138,-19 191,20 47,35 29,-8 52,47 -133,36 -137,-6 -232,3 -226,22 -55,58 -531,55 -130,-1 -93,3 -195,-38 77,-37 100,-6 127,-73 -71,-31 -108,43 -321,-105l-74 -68c76,-47 68,-13 119,-112l-78 -157c40,-96 63,20 91,-176 11,-84 47,-86 108,-143l-99 -38c-247,-74 -370,45 -734,-32 -562,-117 -404,-129 -523,-200 -65,-38 -96,-14 -146,-88 25,-68 26,-53 87,-91 56,49 -12,91 97,32l148 -45c44,-16 61,-52 132,-26 39,13 120,90 105,22 20,-52 2,-29 -84,-52 -56,-14 -111,-16 -151,-34 -18,-72 45,-139 78,-193l106 57 -88 20c25,21 70,37 99,32 73,-15 13,-2 34,-58 34,63 394,114 430,55 -76,-51 -10,0 -97,-15l-314 -93c0,-43 -17,0 56,-34 -147,-15 -50,34 -229,9 80,-42 43,28 104,-51 -1,0 -68,-72 -71,-79 -8,-15 -17,-67 -27,-91zm-91 551c0,-3 -4,-7 -5,-5l5 5zm-898 139c-67,29 -48,12 -61,72l61 -72zm-118 -43c48,4 8,6 91,-38 5,-3 22,-11 25,-12 3,-2 11,0 13,-6 2,-6 9,-4 14,-6 49,129 -30,27 112,75l73 28 17 130c58,8 4,-3 74,-19 25,102 30,119 110,175 -27,31 -49,44 -64,65 -68,-64 -129,-20 -237,-153 14,-57 11,-51 54,-94 -125,-77 -82,-21 -211,-21 -126,0 -159,51 -177,-35 -28,-129 32,10 52,-113 77,23 -14,17 54,24zm474 8c-34,-90 -9,-133 64,-134 6,0 22,1 27,1l-16 43c32,95 51,-27 45,116l-120 -26zm3332 -1284l-5 136c-51,-4 -86,-21 -137,-30 -70,-13 -75,0 -111,-64l253 -42zm125 -1177c354,2 436,-149 538,-89 -42,51 -94,66 -141,111 -38,35 -71,93 -109,125 -104,88 -69,18 -114,15 -46,-2 -45,48 -116,92 -52,-20 -28,-81 -269,88 -96,67 -661,96 -841,139 -255,62 -335,11 -384,54 73,34 67,-21 140,33 -55,19 -109,21 -146,27 -250,39 -340,3 -527,22l121 45c-22,41 7,36 -67,42 64,0 101,-79 365,-47 133,16 137,79 304,141 77,-123 232,-180 354,-64 68,64 3,74 134,72 84,-1 16,-18 93,17l81 53c-97,10 -143,-41 -214,-5 51,66 387,120 441,90 -56,-25 -64,23 -143,-33 93,-49 138,-97 266,-88 12,96 56,194 58,249l-146 13c39,-27 24,-9 36,-17 46,-29 37,-40 -18,-29 -64,12 -31,32 -49,67 -127,1 -346,49 -442,32 -124,-21 -307,-49 -432,-49 195,159 113,21 244,92 -109,82 -179,-24 -306,-35l-570 -70c-225,-97 -320,-48 -457,-184 14,-137 51,-59 28,-192 -13,-71 -9,-83 -46,-160 -100,16 -53,79 -136,27 5,-100 -1,9 71,-82 -32,-75 -105,-55 -3,-160 164,-168 182,-176 329,-116 23,10 74,24 105,35 25,9 25,8 49,19 25,12 22,11 32,15l-249 62c58,91 407,60 519,21 273,-94 622,-300 890,-321 120,-9 486,-48 572,-36 -65,64 -56,20 -125,49 148,65 23,-2 69,83 81,-18 59,-5 31,-59 109,-14 126,-6 180,-94zm-2294 593c0,-4 -6,-10 -9,-7 -35,31 12,9 13,9 0,1 -4,-1 -4,-2zm1888 441c0,0 24,77 23,13 -1,-31 -25,-35 -23,-13zm108 -31c-5,7 19,34 37,6 26,-40 -34,-12 -37,-6zm-912 -504c28,-8 -2,-20 -2,-20 -12,-30 -21,27 2,20zm1161 -1696c59,-27 447,-169 496,-175 35,85 58,33 123,107 -91,112 -161,77 -284,69 -83,-5 -120,9 -183,14 -54,5 -86,-12 -152,-15zm453 -85c40,36 31,15 96,-3 -47,-34 -54,-47 -96,3zm-633 -892c8,-14 -15,-25 72,-52 32,-10 70,-16 111,-21l25 131 -208 -58zm-745 -306c55,-125 69,-197 174,-289l99 49c2,110 -166,237 -273,240z"/>
   <path class="fil1" d="M22411 18169c40,77 22,59 17,135l62 18 50 -65c-36,-68 -18,-15 -43,-56 -27,-44 -4,-26 -36,-78l-50 46z"/>
  </g>
 </g>
</svg>
